#tb 0: 6/49
0,          0,          0,        1,   460800, 0x85b053af
0,          1,          1,        1,   460800, 0xfbdbb291
0,          2,          2,        1,   460800, 0x1389b3d9
0,          3,          3,        1,   460800, 0xc81e8326
0,          4,          4,        1,   460800, 0xb0028333
0,          5,          5,        1,   460800, 0x002b8619
0,          6,          6,        1,   460800, 0xeb808d70
0,          7,          7,        1,   460800, 0xe8288d27
0,          8,          8,        1,   460800, 0xcfbe8bcc
0,          9,          9,        1,   460800, 0x682b8d38
0,         10,         10,        1,   460800, 0x5879cd04
0,         11,         11,        1,   460800, 0x88a6a3e6
0,         12,         12,        1,   460800, 0xc491db72
0,         13,         13,        1,   460800, 0xb779d5cc